<?xml version="1.0" standalone="no"?>
<!DOCTYPE svg PUBLIC "-//W3C//DTD SVG 20010904//EN"
 "http://www.w3.org/TR/2001/REC-SVG-20010904/DTD/svg10.dtd">
<svg version="1.0" xmlns="http://www.w3.org/2000/svg"
 width="261.000000pt" height="261.000000pt" viewBox="0 0 261.000000 261.000000"
 preserveAspectRatio="xMidYMid meet">
<metadata>
Created by potrace 1.11, written by Peter Selinger 2001-2013
</metadata>
<g transform="translate(0.000000,261.000000) scale(0.100000,-0.100000)"
fill="#000000" stroke="none">
<path d="M1510 2296 c-337 -76 -731 -383 -1062 -827 -112 -150 -226 -390 -257
-539 -13 -65 -19 -210 -9 -210 5 0 8 -7 8 -17 0 -9 10 -37 22 -63 24 -49 82
-94 141 -111 43 -11 177 -16 177 -6 0 5 8 7 18 6 22 -4 134 33 210 68 31 15
63 27 70 26 6 0 12 3 12 8 0 5 12 15 27 22 24 13 32 12 77 -8 96 -41 98 -42
122 -44 9 0 12 -6 8 -13 -4 -7 -3 -8 4 -4 14 9 84 -3 77 -14 -2 -4 8 -7 23 -7
15 0 79 -8 142 -17 63 -10 158 -19 211 -20 53 -2 102 -6 108 -10 6 -4 11 -3
11 2 0 10 42 8 61 -4 8 -5 9 -3 4 5 -6 10 7 12 54 9 33 -1 61 0 61 3 0 3 30 9
66 13 76 8 206 37 290 66 148 51 295 150 324 219 7 17 15 29 19 27 16 -10 1
114 -18 152 -29 58 -113 137 -163 155 -14 5 -18 18 -18 54 -1 68 -28 121 -94
180 -89 79 -270 159 -430 188 -20 4 -36 11 -36 15 0 4 16 41 34 82 50 107 76
209 83 318 4 82 2 103 -16 152 -50 130 -184 183 -361 144z"/>
<path d="M2551 817 c-8 -10 -7 -14 2 -14 8 0 14 6 14 14 0 7 -1 13 -2 13 -2 0
-8 -6 -14 -13z"/>
<path d="M2226 492 c-3 -5 1 -9 9 -9 8 0 12 4 9 9 -3 4 -7 8 -9 8 -2 0 -6 -4
-9 -8z"/>
<path d="M1076 443 c-6 -14 -5 -15 5 -6 7 7 10 15 7 18 -3 3 -9 -2 -12 -12z"/>
<path d="M1750 446 c7 -7 13 -7 20 0 6 6 3 10 -10 10 -13 0 -16 -4 -10 -10z"/>
<path d="M800 410 c-9 -6 -10 -10 -3 -10 6 0 15 5 18 10 8 12 4 12 -15 0z"/>
<path d="M1346 372 c-3 -5 1 -9 9 -9 8 0 12 4 9 9 -3 4 -7 8 -9 8 -2 0 -6 -4
-9 -8z"/>
</g>
</svg>
