<?xml version="1.0" standalone="no"?><!DOCTYPE svg PUBLIC "-//W3C//DTD SVG 1.1//EN" "http://www.w3.org/Graphics/SVG/1.1/DTD/svg11.dtd"><svg t="1619556388235" class="icon" viewBox="0 0 1338 1024" version="1.1" xmlns="http://www.w3.org/2000/svg" p-id="2171" xmlns:xlink="http://www.w3.org/1999/xlink" width="261.328125" height="200"><defs><style type="text/css">@font-face { font-family: "Leelawadee UI Web"; src: url("https://static2.sharepointonline.com/files/fabric/assets/fonts/leelawadeeui-thai/leelawadeeui-light.woff2") format("woff2"), url("https://static2.sharepointonline.com/files/fabric/assets/fonts/leelawadeeui-thai/leelawadeeui-light.woff") format("woff"); font-weight: 100; font-style: normal; font-display: swap; }
@font-face { font-family: "Leelawadee UI Web"; src: url("https://static2.sharepointonline.com/files/fabric/assets/fonts/leelawadeeui-thai/leelawadeeui-semilight.woff2") format("woff2"), url("https://static2.sharepointonline.com/files/fabric/assets/fonts/leelawadeeui-thai/leelawadeeui-semilight.woff") format("woff"); font-weight: 300; font-style: normal; font-display: swap; }
@font-face { font-family: "Leelawadee UI Web"; src: url("https://static2.sharepointonline.com/files/fabric/assets/fonts/leelawadeeui-thai/leelawadeeui-regular.woff2") format("woff2"), url("https://static2.sharepointonline.com/files/fabric/assets/fonts/leelawadeeui-thai/leelawadeeui-regular.woff") format("woff"); font-weight: 400; font-style: normal; font-display: swap; }
@font-face { font-family: "Leelawadee UI Web"; src: url("https://static2.sharepointonline.com/files/fabric/assets/fonts/leelawadeeui-thai/leelawadeeui-semibold.woff2") format("woff2"), url("https://static2.sharepointonline.com/files/fabric/assets/fonts/leelawadeeui-thai/leelawadeeui-semibold.woff") format("woff"); font-weight: 600; font-style: normal; font-display: swap; }
@font-face { font-family: "Leelawadee UI Web"; src: url("https://static2.sharepointonline.com/files/fabric/assets/fonts/leelawadeeui-thai/leelawadeeui-bold.woff2") format("woff2"), url("https://static2.sharepointonline.com/files/fabric/assets/fonts/leelawadeeui-thai/leelawadeeui-bold.woff") format("woff"); font-weight: 700; font-style: normal; font-display: swap; }
@font-face { font-family: "Segoe UI Web (Arabic)"; src: url("https://static2.sharepointonline.com/files/fabric/assets/fonts/segoeui-arabic/segoeui-light.woff2") format("woff2"), url("https://static2.sharepointonline.com/files/fabric/assets/fonts/segoeui-arabic/segoeui-light.woff") format("woff"); font-weight: 100; font-style: normal; font-display: swap; }
@font-face { font-family: "Segoe UI Web (Arabic)"; src: url("https://static2.sharepointonline.com/files/fabric/assets/fonts/segoeui-arabic/segoeui-semilight.woff2") format("woff2"), url("https://static2.sharepointonline.com/files/fabric/assets/fonts/segoeui-arabic/segoeui-semilight.woff") format("woff"); font-weight: 300; font-style: normal; font-display: swap; }
@font-face { font-family: "Segoe UI Web (Arabic)"; src: url("https://static2.sharepointonline.com/files/fabric/assets/fonts/segoeui-arabic/segoeui-regular.woff2") format("woff2"), url("https://static2.sharepointonline.com/files/fabric/assets/fonts/segoeui-arabic/segoeui-regular.woff") format("woff"); font-weight: 400; font-style: normal; font-display: swap; }
@font-face { font-family: "Segoe UI Web (Arabic)"; src: url("https://static2.sharepointonline.com/files/fabric/assets/fonts/segoeui-arabic/segoeui-semibold.woff2") format("woff2"), url("https://static2.sharepointonline.com/files/fabric/assets/fonts/segoeui-arabic/segoeui-semibold.woff") format("woff"); font-weight: 600; font-style: normal; font-display: swap; }
@font-face { font-family: "Segoe UI Web (Arabic)"; src: url("https://static2.sharepointonline.com/files/fabric/assets/fonts/segoeui-arabic/segoeui-bold.woff2") format("woff2"), url("https://static2.sharepointonline.com/files/fabric/assets/fonts/segoeui-arabic/segoeui-bold.woff") format("woff"); font-weight: 700; font-style: normal; font-display: swap; }
@font-face { font-family: "Segoe UI Web (Cyrillic)"; src: url("https://static2.sharepointonline.com/files/fabric/assets/fonts/segoeui-cyrillic/segoeui-light.woff2") format("woff2"), url("https://static2.sharepointonline.com/files/fabric/assets/fonts/segoeui-cyrillic/segoeui-light.woff") format("woff"); font-weight: 100; font-style: normal; font-display: swap; }
@font-face { font-family: "Segoe UI Web (Cyrillic)"; src: url("https://static2.sharepointonline.com/files/fabric/assets/fonts/segoeui-cyrillic/segoeui-semilight.woff2") format("woff2"), url("https://static2.sharepointonline.com/files/fabric/assets/fonts/segoeui-cyrillic/segoeui-semilight.woff") format("woff"); font-weight: 300; font-style: normal; font-display: swap; }
@font-face { font-family: "Segoe UI Web (Cyrillic)"; src: url("https://static2.sharepointonline.com/files/fabric/assets/fonts/segoeui-cyrillic/segoeui-regular.woff2") format("woff2"), url("https://static2.sharepointonline.com/files/fabric/assets/fonts/segoeui-cyrillic/segoeui-regular.woff") format("woff"); font-weight: 400; font-style: normal; font-display: swap; }
@font-face { font-family: "Segoe UI Web (Cyrillic)"; src: url("https://static2.sharepointonline.com/files/fabric/assets/fonts/segoeui-cyrillic/segoeui-semibold.woff2") format("woff2"), url("https://static2.sharepointonline.com/files/fabric/assets/fonts/segoeui-cyrillic/segoeui-semibold.woff") format("woff"); font-weight: 600; font-style: normal; font-display: swap; }
@font-face { font-family: "Segoe UI Web (Cyrillic)"; src: url("https://static2.sharepointonline.com/files/fabric/assets/fonts/segoeui-cyrillic/segoeui-bold.woff2") format("woff2"), url("https://static2.sharepointonline.com/files/fabric/assets/fonts/segoeui-cyrillic/segoeui-bold.woff") format("woff"); font-weight: 700; font-style: normal; font-display: swap; }
@font-face { font-family: "Segoe UI Web (East European)"; src: url("https://static2.sharepointonline.com/files/fabric/assets/fonts/segoeui-easteuropean/segoeui-light.woff2") format("woff2"), url("https://static2.sharepointonline.com/files/fabric/assets/fonts/segoeui-easteuropean/segoeui-light.woff") format("woff"); font-weight: 100; font-style: normal; font-display: swap; }
@font-face { font-family: "Segoe UI Web (East European)"; src: url("https://static2.sharepointonline.com/files/fabric/assets/fonts/segoeui-easteuropean/segoeui-semilight.woff2") format("woff2"), url("https://static2.sharepointonline.com/files/fabric/assets/fonts/segoeui-easteuropean/segoeui-semilight.woff") format("woff"); font-weight: 300; font-style: normal; font-display: swap; }
@font-face { font-family: "Segoe UI Web (East European)"; src: url("https://static2.sharepointonline.com/files/fabric/assets/fonts/segoeui-easteuropean/segoeui-regular.woff2") format("woff2"), url("https://static2.sharepointonline.com/files/fabric/assets/fonts/segoeui-easteuropean/segoeui-regular.woff") format("woff"); font-weight: 400; font-style: normal; font-display: swap; }
@font-face { font-family: "Segoe UI Web (East European)"; src: url("https://static2.sharepointonline.com/files/fabric/assets/fonts/segoeui-easteuropean/segoeui-semibold.woff2") format("woff2"), url("https://static2.sharepointonline.com/files/fabric/assets/fonts/segoeui-easteuropean/segoeui-semibold.woff") format("woff"); font-weight: 600; font-style: normal; font-display: swap; }
@font-face { font-family: "Segoe UI Web (East European)"; src: url("https://static2.sharepointonline.com/files/fabric/assets/fonts/segoeui-easteuropean/segoeui-bold.woff2") format("woff2"), url("https://static2.sharepointonline.com/files/fabric/assets/fonts/segoeui-easteuropean/segoeui-bold.woff") format("woff"); font-weight: 700; font-style: normal; font-display: swap; }
@font-face { font-family: "Segoe UI Web (Greek)"; src: url("https://static2.sharepointonline.com/files/fabric/assets/fonts/segoeui-greek/segoeui-light.woff2") format("woff2"), url("https://static2.sharepointonline.com/files/fabric/assets/fonts/segoeui-greek/segoeui-light.woff") format("woff"); font-weight: 100; font-style: normal; font-display: swap; }
@font-face { font-family: "Segoe UI Web (Greek)"; src: url("https://static2.sharepointonline.com/files/fabric/assets/fonts/segoeui-greek/segoeui-semilight.woff2") format("woff2"), url("https://static2.sharepointonline.com/files/fabric/assets/fonts/segoeui-greek/segoeui-semilight.woff") format("woff"); font-weight: 300; font-style: normal; font-display: swap; }
@font-face { font-family: "Segoe UI Web (Greek)"; src: url("https://static2.sharepointonline.com/files/fabric/assets/fonts/segoeui-greek/segoeui-regular.woff2") format("woff2"), url("https://static2.sharepointonline.com/files/fabric/assets/fonts/segoeui-greek/segoeui-regular.woff") format("woff"); font-weight: 400; font-style: normal; font-display: swap; }
@font-face { font-family: "Segoe UI Web (Greek)"; src: url("https://static2.sharepointonline.com/files/fabric/assets/fonts/segoeui-greek/segoeui-semibold.woff2") format("woff2"), url("https://static2.sharepointonline.com/files/fabric/assets/fonts/segoeui-greek/segoeui-semibold.woff") format("woff"); font-weight: 600; font-style: normal; font-display: swap; }
@font-face { font-family: "Segoe UI Web (Greek)"; src: url("https://static2.sharepointonline.com/files/fabric/assets/fonts/segoeui-greek/segoeui-bold.woff2") format("woff2"), url("https://static2.sharepointonline.com/files/fabric/assets/fonts/segoeui-greek/segoeui-bold.woff") format("woff"); font-weight: 700; font-style: normal; font-display: swap; }
@font-face { font-family: "Segoe UI Web (Hebrew)"; src: url("https://static2.sharepointonline.com/files/fabric/assets/fonts/segoeui-hebrew/segoeui-light.woff2") format("woff2"), url("https://static2.sharepointonline.com/files/fabric/assets/fonts/segoeui-hebrew/segoeui-light.woff") format("woff"); font-weight: 100; font-style: normal; font-display: swap; }
@font-face { font-family: "Segoe UI Web (Hebrew)"; src: url("https://static2.sharepointonline.com/files/fabric/assets/fonts/segoeui-hebrew/segoeui-semilight.woff2") format("woff2"), url("https://static2.sharepointonline.com/files/fabric/assets/fonts/segoeui-hebrew/segoeui-semilight.woff") format("woff"); font-weight: 300; font-style: normal; font-display: swap; }
@font-face { font-family: "Segoe UI Web (Hebrew)"; src: url("https://static2.sharepointonline.com/files/fabric/assets/fonts/segoeui-hebrew/segoeui-regular.woff2") format("woff2"), url("https://static2.sharepointonline.com/files/fabric/assets/fonts/segoeui-hebrew/segoeui-regular.woff") format("woff"); font-weight: 400; font-style: normal; font-display: swap; }
@font-face { font-family: "Segoe UI Web (Hebrew)"; src: url("https://static2.sharepointonline.com/files/fabric/assets/fonts/segoeui-hebrew/segoeui-semibold.woff2") format("woff2"), url("https://static2.sharepointonline.com/files/fabric/assets/fonts/segoeui-hebrew/segoeui-semibold.woff") format("woff"); font-weight: 600; font-style: normal; font-display: swap; }
@font-face { font-family: "Segoe UI Web (Hebrew)"; src: url("https://static2.sharepointonline.com/files/fabric/assets/fonts/segoeui-hebrew/segoeui-bold.woff2") format("woff2"), url("https://static2.sharepointonline.com/files/fabric/assets/fonts/segoeui-hebrew/segoeui-bold.woff") format("woff"); font-weight: 700; font-style: normal; font-display: swap; }
@font-face { font-family: "Segoe UI Web (Vietnamese)"; src: url("https://static2.sharepointonline.com/files/fabric/assets/fonts/segoeui-vietnamese/segoeui-light.woff2") format("woff2"), url("https://static2.sharepointonline.com/files/fabric/assets/fonts/segoeui-vietnamese/segoeui-light.woff") format("woff"); font-weight: 100; font-style: normal; font-display: swap; }
@font-face { font-family: "Segoe UI Web (Vietnamese)"; src: url("https://static2.sharepointonline.com/files/fabric/assets/fonts/segoeui-vietnamese/segoeui-semilight.woff2") format("woff2"), url("https://static2.sharepointonline.com/files/fabric/assets/fonts/segoeui-vietnamese/segoeui-semilight.woff") format("woff"); font-weight: 300; font-style: normal; font-display: swap; }
@font-face { font-family: "Segoe UI Web (Vietnamese)"; src: url("https://static2.sharepointonline.com/files/fabric/assets/fonts/segoeui-vietnamese/segoeui-regular.woff2") format("woff2"), url("https://static2.sharepointonline.com/files/fabric/assets/fonts/segoeui-vietnamese/segoeui-regular.woff") format("woff"); font-weight: 400; font-style: normal; font-display: swap; }
@font-face { font-family: "Segoe UI Web (Vietnamese)"; src: url("https://static2.sharepointonline.com/files/fabric/assets/fonts/segoeui-vietnamese/segoeui-semibold.woff2") format("woff2"), url("https://static2.sharepointonline.com/files/fabric/assets/fonts/segoeui-vietnamese/segoeui-semibold.woff") format("woff"); font-weight: 600; font-style: normal; font-display: swap; }
@font-face { font-family: "Segoe UI Web (Vietnamese)"; src: url("https://static2.sharepointonline.com/files/fabric/assets/fonts/segoeui-vietnamese/segoeui-bold.woff2") format("woff2"), url("https://static2.sharepointonline.com/files/fabric/assets/fonts/segoeui-vietnamese/segoeui-bold.woff") format("woff"); font-weight: 700; font-style: normal; font-display: swap; }
@font-face { font-family: "Segoe UI Web (West European)"; src: local("Segoe UI Light"), url("https://static2.sharepointonline.com/files/fabric/assets/fonts/segoeui-westeuropean/segoeui-light.woff2") format("woff2"), url("https://static2.sharepointonline.com/files/fabric/assets/fonts/segoeui-westeuropean/segoeui-light.woff") format("woff"); font-weight: 100; font-style: normal; font-display: swap; }
@font-face { font-family: "Segoe UI Web (West European)"; src: local("Segoe UI SemiLight"), url("https://static2.sharepointonline.com/files/fabric/assets/fonts/segoeui-westeuropean/segoeui-semilight.woff2") format("woff2"), url("https://static2.sharepointonline.com/files/fabric/assets/fonts/segoeui-westeuropean/segoeui-semilight.woff") format("woff"); font-weight: 300; font-style: normal; font-display: swap; }
@font-face { font-family: "Segoe UI Web (West European)"; src: local("Segoe UI"), url("https://static2.sharepointonline.com/files/fabric/assets/fonts/segoeui-westeuropean/segoeui-regular.woff2") format("woff2"), url("https://static2.sharepointonline.com/files/fabric/assets/fonts/segoeui-westeuropean/segoeui-regular.woff") format("woff"); font-weight: 400; font-style: normal; font-display: swap; }
@font-face { font-family: "Segoe UI Web (West European)"; src: local("Segoe UI SemiBold"), url("https://static2.sharepointonline.com/files/fabric/assets/fonts/segoeui-westeuropean/segoeui-semibold.woff2") format("woff2"), url("https://static2.sharepointonline.com/files/fabric/assets/fonts/segoeui-westeuropean/segoeui-semibold.woff") format("woff"); font-weight: 600; font-style: normal; font-display: swap; }
@font-face { font-family: "Segoe UI Web (West European)"; src: local("Segoe UI Bold"), url("https://static2.sharepointonline.com/files/fabric/assets/fonts/segoeui-westeuropean/segoeui-bold.woff2") format("woff2"), url("https://static2.sharepointonline.com/files/fabric/assets/fonts/segoeui-westeuropean/segoeui-bold.woff") format("woff"); font-weight: 700; font-style: normal; font-display: swap; }
@font-face { src: url("https://static2.sharepointonline.com/files/fabric/assets/fonts/selawik/selawik-light.woff2") format("woff2"), url("https://static2.sharepointonline.com/files/fabric/assets/fonts/selawik/selawik-light.woff") format("woff"); font-weight: 100; font-style: normal; font-display: swap; }
@font-face { src: url("https://static2.sharepointonline.com/files/fabric/assets/fonts/selawik/selawik-semilight.woff2") format("woff2"), url("https://static2.sharepointonline.com/files/fabric/assets/fonts/selawik/selawik-semilight.woff") format("woff"); font-weight: 300; font-style: normal; font-display: swap; }
@font-face { src: url("https://static2.sharepointonline.com/files/fabric/assets/fonts/selawik/selawik-regular.woff2") format("woff2"), url("https://static2.sharepointonline.com/files/fabric/assets/fonts/selawik/selawik-regular.woff") format("woff"); font-weight: 400; font-style: normal; font-display: swap; }
@font-face { src: url("https://static2.sharepointonline.com/files/fabric/assets/fonts/selawik/selawik-semibold.woff2") format("woff2"), url("https://static2.sharepointonline.com/files/fabric/assets/fonts/selawik/selawik-semibold.woff") format("woff"); font-weight: 600; font-style: normal; font-display: swap; }
@font-face { src: url("https://static2.sharepointonline.com/files/fabric/assets/fonts/selawik/selawik-bold.woff2") format("woff2"), url("https://static2.sharepointonline.com/files/fabric/assets/fonts/selawik/selawik-bold.woff") format("woff"); font-weight: 700; font-style: normal; font-display: swap; }
@font-face { font-family: "Segoe UI Web (Armenian)"; src: url("https://static2.sharepointonline.com/files/fabric/assets/fonts/segoeui-armenian/segoeui-light.woff2") format("woff2"), url("https://static2.sharepointonline.com/files/fabric/assets/fonts/segoeui-armenian/segoeui-light.woff") format("woff"); font-weight: 100; font-style: normal; font-display: swap; }
@font-face { font-family: "Segoe UI Web (Armenian)"; src: url("https://static2.sharepointonline.com/files/fabric/assets/fonts/segoeui-armenian/segoeui-semilight.woff2") format("woff2"), url("https://static2.sharepointonline.com/files/fabric/assets/fonts/segoeui-armenian/segoeui-semilight.woff") format("woff"); font-weight: 300; font-style: normal; font-display: swap; }
@font-face { font-family: "Segoe UI Web (Armenian)"; src: url("https://static2.sharepointonline.com/files/fabric/assets/fonts/segoeui-armenian/segoeui-regular.woff2") format("woff2"), url("https://static2.sharepointonline.com/files/fabric/assets/fonts/segoeui-armenian/segoeui-regular.woff") format("woff"); font-weight: 400; font-style: normal; font-display: swap; }
@font-face { font-family: "Segoe UI Web (Armenian)"; src: url("https://static2.sharepointonline.com/files/fabric/assets/fonts/segoeui-armenian/segoeui-semibold.woff2") format("woff2"), url("https://static2.sharepointonline.com/files/fabric/assets/fonts/segoeui-armenian/segoeui-semibold.woff") format("woff"); font-weight: 600; font-style: normal; font-display: swap; }
@font-face { font-family: "Segoe UI Web (Armenian)"; src: url("https://static2.sharepointonline.com/files/fabric/assets/fonts/segoeui-armenian/segoeui-bold.woff2") format("woff2"), url("https://static2.sharepointonline.com/files/fabric/assets/fonts/segoeui-armenian/segoeui-bold.woff") format("woff"); font-weight: 700; font-style: normal; font-display: swap; }
@font-face { font-family: "Segoe UI Web (Georgian)"; src: url("https://static2.sharepointonline.com/files/fabric/assets/fonts/segoeui-georgian/segoeui-light.woff2") format("woff2"), url("https://static2.sharepointonline.com/files/fabric/assets/fonts/segoeui-georgian/segoeui-light.woff") format("woff"); font-weight: 100; font-style: normal; font-display: swap; }
@font-face { font-family: "Segoe UI Web (Georgian)"; src: url("https://static2.sharepointonline.com/files/fabric/assets/fonts/segoeui-georgian/segoeui-semilight.woff2") format("woff2"), url("https://static2.sharepointonline.com/files/fabric/assets/fonts/segoeui-georgian/segoeui-semilight.woff") format("woff"); font-weight: 300; font-style: normal; font-display: swap; }
@font-face { font-family: "Segoe UI Web (Georgian)"; src: url("https://static2.sharepointonline.com/files/fabric/assets/fonts/segoeui-georgian/segoeui-regular.woff2") format("woff2"), url("https://static2.sharepointonline.com/files/fabric/assets/fonts/segoeui-georgian/segoeui-regular.woff") format("woff"); font-weight: 400; font-style: normal; font-display: swap; }
@font-face { font-family: "Segoe UI Web (Georgian)"; src: url("https://static2.sharepointonline.com/files/fabric/assets/fonts/segoeui-georgian/segoeui-semibold.woff2") format("woff2"), url("https://static2.sharepointonline.com/files/fabric/assets/fonts/segoeui-georgian/segoeui-semibold.woff") format("woff"); font-weight: 600; font-style: normal; font-display: swap; }
@font-face { font-family: "Segoe UI Web (Georgian)"; src: url("https://static2.sharepointonline.com/files/fabric/assets/fonts/segoeui-georgian/segoeui-bold.woff2") format("woff2"), url("https://static2.sharepointonline.com/files/fabric/assets/fonts/segoeui-georgian/segoeui-bold.woff") format("woff"); font-weight: 700; font-style: normal; font-display: swap; }
@font-face { font-family: "Leelawadee UI Web"; src: url("https://static2.sharepointonline.com/files/fabric/assets/fonts/leelawadeeui-thai/leelawadeeui-semilight.woff2") format("woff2"), url("https://static2.sharepointonline.com/files/fabric/assets/fonts/leelawadeeui-thai/leelawadeeui-semilight.woff") format("woff"); font-weight: 100; font-style: normal; font-display: swap; }
@font-face { font-family: "Leelawadee UI Web"; src: url("https://static2.sharepointonline.com/files/fabric/assets/fonts/leelawadeeui-thai/leelawadeeui-bold.woff2") format("woff2"), url("https://static2.sharepointonline.com/files/fabric/assets/fonts/leelawadeeui-thai/leelawadeeui-bold.woff") format("woff"); font-weight: 600; font-style: normal; font-display: swap; }
@font-face { font-family: FabricMDL2Icons; src: url("fabric-icons.woff") format("woff"); }
</style></defs><path d="M388.27754 790.906276a32.912961 29.255965 0 1 0 65.825922 0 32.912961 29.255965 0 1 0-65.825922 0Z" fill="#FFF5F5" p-id="2172"></path><path d="M1.430998 793.132273a667.958209 229.913728 0 1 0 1335.916418 0 667.958209 229.913728 0 1 0-1335.916418 0Z" fill="#51150B" opacity=".11" p-id="2173"></path><path d="M352.025583 709.180373a473.18344 203.996758 0 1 0 946.366879 0 473.18344 203.996758 0 1 0-946.366879 0Z" fill="#DEA764" p-id="2174"></path><path d="M1245.604525 615.529484c-14.468983 52.787937-51.674939 129.425847-146.279827 144.053829C952.249872 782.320286 985.798832 775.960294 929.512899 795.83527c-56.285933 20.033976-293.354653 21.782974-311.480631-29.096965-18.125979-50.87994-162.656807-81.725903-194.29777-84.4289-31.799962-2.702997 27.188968-91.265892 113.525866-105.098876 66.938921-10.811987 134.83184-39.908953 162.497807-64.712923C499.259409 536.188578 351.866583 615.211484 351.866583 709.180373c0 112.571867 211.787749 203.996758 473.18344 203.996758 261.39569 0 473.342439-91.424892 473.342439-203.996758 0-33.70796-19.079977-65.666922-52.787937-93.650889z" fill="#CB8F51" p-id="2175"></path><path d="M825.209023 873.109179c-255.671697 0-463.96145-63.122925-472.86544-171.242797-0.159 2.384997-0.318 4.769994-0.318 7.313991 0 112.571867 211.787749 203.996758 473.18344 203.996758 261.39569 0 473.18344-91.424892 473.183439-203.996758 0-2.384997-0.159-4.928994-0.317999-7.313991-8.903989 108.119872-217.193743 171.242797-472.86544 171.242797z" fill="#9E6434" p-id="2176"></path><path d="M649.673231 702.97938c2.543997 3.974995 7.949991 15.263982 12.401985 16.85398 3.656996 1.271998 11.924986 1.748998 15.422982 0 2.384997-1.271998 0.318-6.200993 1.112998-8.744989 0.953999-3.020996 6.200993-9.698989 5.087994-12.560986-2.066998-4.928994-10.334988-8.10899-15.422981-10.175987-4.928994-2.066998-9.062989-7.790991-13.514984-5.087994-2.225997 1.430998-5.405994 6.200993-5.723994 8.903989-0.476999 4.292995-1.589998 7.313991 0.636 10.811987z m197.000766-160.58981c1.748998 2.861997 5.564993 10.811987 8.74499 11.924986 2.543997 0.953999 8.42699 1.271998 10.970987 0 1.748998-0.953999 0.159-4.451995 0.794999-6.200992 0.635999-2.066998 4.451995-6.836992 3.497996-8.90399-1.430998-3.497996-7.313991-5.723993-10.970987-7.154991-3.497996-1.430998-6.518992-5.564993-9.539989-3.497996-1.589998 0.953999-3.815995 4.451995-3.974995 6.359992-0.318 2.702997-1.112999 4.928994 0.476999 7.472991z m217.988742 21.782975c1.907998 3.020996 5.882993 11.447986 9.380989 12.719985 2.702997 0.953999 9.062989 1.271998 11.606986 0 1.748998-0.953999 0.159-4.610995 0.794999-6.677993 0.635999-2.225997 4.769994-7.313991 3.815996-9.539988-1.589998-3.815995-7.790991-6.041993-11.606987-7.631991-3.656996-1.430998-6.836992-5.882993-10.175987-3.815996-1.748998 1.112999-4.133995 4.769994-4.292995 6.677992-0.476999 3.338996-1.271998 5.564993 0.476999 8.267991z m-118.772859 155.342816c-6.995992 0.953999-25.757969 1.271998-30.527964 6.359992-3.974995 4.133995-9.857988 15.104982-9.539989 20.828975 0.159 3.974995 8.26799 4.292995 11.288987 6.995992 3.497996 3.179996 9.380989 14.468983 13.991983 14.627983 8.10899 0.318 17.330979-9.062989 23.213973-14.627983 5.723993-5.405994 16.217981-7.472991 15.263982-15.263982-0.476999-3.974995-5.087994-11.288987-8.58599-13.196984-5.405994-3.179996-8.903989-6.518992-15.104982-5.723993zM744.119119 540.640572c0 9.221989-10.334988 16.53598-22.895973 16.535981-12.719985 0-22.895973-7.472991-22.895973-16.535981s10.334988-9.857988 22.895973-9.857988c5.564993 0 10.811987-4.928994 14.786982-3.974995 4.928994 1.112999 8.10899 8.74499 8.108991 13.832983z m387.164541 131.810844c7.472991 3.656996 16.53598 0.794999 19.874977-6.359992 3.338996-7.154992 0.159-15.899981-7.313992-19.556977-7.472991-3.656996-10.970987 1.907998-14.309983 9.062989-1.589998 3.179996-6.995992 4.133995-7.313991 6.836992-0.476999 3.179996 4.769994 7.949991 9.062989 10.016988zM745.709117 819.049243c3.179996 3.656996 9.698989 13.673984 15.263982 15.104982 4.451995 1.112999 14.786982 1.589998 18.920977 0 2.861997-1.112999 0.318-5.564993 1.430999-7.949991 1.112999-2.702997 7.631991-8.74499 6.200992-11.288986-2.543997-4.451995-12.878985-7.313991-18.920977-9.06299-6.041993-1.748998-11.129987-6.995992-16.694981-4.451994-2.702997 1.271998-6.677992 5.564993-6.995991 7.94999-0.635999 3.815995-1.907998 6.518992 0.794999 9.698989zM1236.382536 750.520324c1.907998 2.861997 5.723993 11.129987 8.903989 12.242985 2.543997 0.953999 8.58599 1.271998 11.129987 0 1.748998-0.953999 0.159-4.451995 0.794999-6.359992 0.635999-2.225997 4.451995-6.995992 3.656996-9.062989-1.430998-3.656996-7.472991-5.882993-11.129987-7.313992-3.497996-1.430998-6.518992-5.723993-9.857988-3.656995-1.589998 0.953999-3.974995 4.610995-4.133996 6.359992-0.318 3.020996-1.112999 5.246994 0.636 7.790991z m-679.088196-38.477955c-8.10899 4.292995-24.803971 22.100974-20.510976 30.050965 2.384997 4.451995 21.146975 2.702997 20.510976 0-0.635999-2.702997-1.907998-9.062989 0-10.970987 2.702997-2.702997 13.037985-0.794999 15.104982-3.497996 2.066998-2.702997 6.041993-12.719985 3.497996-15.740981-3.179996-3.338996-14.468983-2.066998-18.602978 0.158999z m421.031501-89.357894c-5.723993 3.179996-4.451995 1.271998-10.970987 4.133995-3.815995 1.589998-6.359992 7.949991-8.903989 10.175988-2.066998 1.748998 8.58599 3.815995 6.041993 5.405994-0.635999 0.318-2.543997 1.112999 5.246993 1.748998 7.790991 0.794999 11.924986 1.748998 16.217981 0 4.133995-1.748998 8.42699-3.974995 10.493988-5.723993 2.066998-1.748998 4.451995-6.041993 9.857988-8.267991 5.882993-2.384997 1.907998-4.610995-0.159-4.292994-14.150983 2.225997-10.334988-1.430998-17.330979-2.225998-6.041993-0.794999-6.359992-3.338996-10.493988-0.953999z" fill="#6D4836" p-id="2177"></path><path d="M825.209023 505.183614c-261.39569 0-473.18344 91.265892-473.18344 203.996759 0 55.490934 51.356939 105.734875 134.83184 142.463831 86.495898-47.540944 178.238789-115.592863 265.211686-200.021763 48.653942-47.222944 92.060891-96.194886 129.743847-144.848828-18.602978-1.112999-37.523956-1.589998-56.603933-1.589999z" fill="#3F270F" opacity=".4" p-id="2178"></path><path d="M247.880706 555.109555a473.18344 203.996758 0 1 0 946.36688 0 473.18344 203.996758 0 1 0-946.36688 0Z" fill="#DEA764" p-id="2179"></path><path d="M1141.618648 461.617666c-14.468983 52.787937-51.674939 129.425847-146.279827 144.053829-147.074826 22.736973-113.525866 16.376981-169.811799 36.251958-56.285933 19.874976-293.354653 21.782974-311.480631-29.096966-18.125979-50.87994-162.497808-81.725903-194.29777-84.4289-31.799962-2.702997 27.188968-91.265892 113.525866-105.098876 66.938921-10.811987 134.83184-39.908953 162.497807-64.712923C395.273532 382.27676 248.039706 461.299666 248.039706 555.268555 248.039706 667.840422 459.827455 759.265314 721.223146 759.265314c261.39569 0 473.18344-91.424892 473.183439-204.155759 0-33.70796-19.079977-65.507922-52.787937-93.491889z" fill="#CB8F51" p-id="2180"></path><path d="M721.064146 719.038361c-255.671697 0-463.96145-63.122925-472.86544-171.242797-0.159 2.384997-0.318 4.769994-0.318 7.313991 0 112.571867 211.787749 203.996758 473.18344 203.996759 261.39569 0 473.342439-91.265892 473.342439-203.996759 0-2.384997-0.159-4.928994-0.317999-7.313991-8.903989 108.278872-217.193743 171.242797-473.02444 171.242797z" fill="#9E6434" p-id="2181"></path><path d="M545.687354 549.067562c2.543997 3.974995 7.949991 15.263982 12.401985 16.853981 3.656996 1.271998 11.924986 1.748998 15.422982 0 2.384997-1.271998 0.318-6.200993 1.112998-8.74499 0.953999-3.020996 6.200993-9.698989 5.087994-12.560985-2.066998-4.928994-10.334988-8.10899-15.422981-10.175988-4.928994-2.066998-9.062989-7.790991-13.514984-5.087994-2.225997 1.430998-5.405994 6.200993-5.723994 8.903989-0.476999 4.133995-1.589998 7.313991 0.636 10.811987zM742.68812 388.318753c1.748998 2.861997 5.564993 10.811987 8.74499 11.924986 2.543997 0.953999 8.42699 1.271998 10.970987 0 1.748998-0.953999 0.159-4.451995 0.794999-6.200993 0.635999-2.066998 4.451995-6.836992 3.497996-8.903989-1.430998-3.497996-7.313991-5.723993-10.970987-7.154992-3.497996-1.430998-6.518992-5.564993-9.539989-3.497996-1.589998 0.953999-3.815995 4.451995-3.974995 6.359993-0.318 2.861997-1.112999 4.928994 0.476999 7.472991z m217.829742 21.782974c1.907998 3.020996 5.882993 11.447986 9.380989 12.719985 2.702997 0.953999 9.062989 1.271998 11.606987 0 1.748998-0.953999 0.159-4.610995 0.794999-6.677992 0.635999-2.225997 4.769994-7.313991 3.815995-9.539989-1.589998-3.815995-7.790991-6.041993-11.606986-7.631991-3.656996-1.430998-6.836992-5.882993-10.175988-3.815995-1.748998 1.112999-4.133995 4.769994-4.292995 6.677992-0.318 3.338996-1.112999 5.723993 0.476999 8.26799z m-118.613859 155.501816c-6.995992 0.953999-25.757969 1.271998-30.527964 6.359992-3.974995 4.133995-9.857988 15.104982-9.539989 20.828976 0.159 3.974995 8.26799 4.292995 11.288987 6.995991 3.497996 3.179996 9.380989 14.468983 13.991983 14.627983 8.10899 0.318 17.330979-9.062989 23.213973-14.627983 5.723993-5.405994 16.217981-7.472991 15.263982-15.263981-0.476999-3.974995-5.087994-11.288987-8.58599-13.196985-5.564993-3.179996-8.903989-6.677992-15.104982-5.723993z m-201.929761-179.033788c0 9.221989-10.175988 16.53598-22.895973 16.53598s-22.895973-7.472991-22.895973-16.53598 10.175988-9.857988 22.895973-9.857988c5.564993 0 10.811987-4.928994 14.786983-3.974996 5.087994 1.271998 8.10899 8.74499 8.10899 13.832984z m387.323541 131.969844c7.472991 3.656996 16.53598 0.794999 19.874977-6.359993 3.497996-7.154992 0.159-15.899981-7.313992-19.556977-7.472991-3.656996-10.970987 1.907998-14.309983 9.06299-1.589998 3.179996-6.995992 4.133995-7.313991 6.836992-0.476999 3.179996 4.769994 7.949991 9.062989 10.016988z m-385.574543 146.597826c3.179996 3.656996 9.698989 13.673984 15.263982 15.104982 4.451995 1.112999 14.786982 1.589998 18.920977 0 2.861997-1.112999 0.318-5.564993 1.430999-7.94999 1.112999-2.702997 7.631991-8.74499 6.200992-11.288987-2.543997-4.451995-12.878985-7.313991-18.920977-9.062989-6.041993-1.748998-11.129987-6.995992-16.69498-4.451995-2.702997 1.271998-6.677992 5.564993-6.995992 7.949991-0.635999 3.815995-1.907998 6.518992 0.794999 9.698988z m490.673419-68.687919c1.907998 2.861997 5.723993 11.129987 8.903989 12.242986 2.543997 0.953999 8.58599 1.271998 11.129987 0 1.748998-0.953999 0.159-4.451995 0.794999-6.359993 0.635999-2.225997 4.451995-6.995992 3.656996-9.062989-1.430998-3.656996-7.472991-5.882993-11.129987-7.313991-3.497996-1.430998-6.518992-5.723993-9.857988-3.656996-1.589998 0.953999-3.974995 4.610995-4.133995 6.359993-0.318 3.020996-1.112999 5.246994 0.635999 7.79099z m-679.088196-38.477954c-8.10899 4.292995-24.803971 22.100974-20.510976 30.050964 2.384997 4.451995 21.146975 2.702997 20.510976 0-0.635999-2.702997-1.907998-9.062989 0-10.970987 2.702997-2.702997 13.037985-0.794999 15.104982-3.497996 2.066998-2.702997 6.041993-12.719985 3.497996-15.740981-3.179996-3.179996-14.468983-1.907998-18.602978 0.159z m421.031501-89.357894c-5.723993 3.179996-4.451995 1.271998-10.970987 4.133995-3.815995 1.589998-6.359992 7.949991-8.903989 10.175988-2.066998 1.748998 8.58599 3.815995 6.041993 5.405993-0.635999 0.318-2.543997 1.112999 5.246994 1.748998 7.790991 0.794999 11.924986 1.748998 16.21798 0 4.292995-1.748998 8.42699-3.974995 10.493988-5.723993 2.066998-1.748998 4.451995-6.041993 9.857988-8.26799 5.882993-2.384997 1.907998-4.610995-0.159-4.292995-14.150983 2.225997-10.334988-1.430998-17.330979-2.225997-6.200993-0.635999-6.359992-3.179996-10.493988-0.953999z" fill="#6D4836" p-id="2182"></path><path d="M721.064146 351.271797c-261.39569 0-473.18344 91.265892-473.18344 203.996758 0 99.533882 165.518804 182.372784 384.461545 200.339763 40.226952-31.004963 80.453905-65.825922 119.726858-103.826877 90.947892-88.403895 163.928806-182.372784 214.331746-270.935679-71.549915-18.920978-155.501816-29.573965-245.336709-29.573965z" fill="#3F270F" opacity=".2" p-id="2183"></path><path d="M131.667934 883.731771a251.060703 582.57531 43.15 1 0 796.858976-850.053963 251.060703 582.57531 43.15 1 0-796.858976 850.053963Z" fill="#DEA764" p-id="2184"></path><path d="M800.087052 2.26721c35.297958 57.398932 72.821914 155.342816 6.200993 252.491701-103.508877 151.208821-80.930904 115.751863-110.345869 183.167783-29.414965 67.41592-227.369731 281.906666-288.425659 255.353698-60.896928-26.552969-210.356751 77.273908-239.453716 103.508877-29.096966 26.234969-58.98893-101.28288 1.112999-190.481774 46.586945-69.164918 77.750908-154.706817 78.545907-200.498763C100.169881 605.830495 47.222944 804.58026 131.651844 883.762166c101.12388 94.763888 361.565572-18.602978 581.462311-253.2867 219.89674-234.683722 316.409625-501.803406 215.285745-596.726293-30.209964-28.460966-74.888911-38.159955-128.312848-31.481963z" fill="#CB8F51" p-id="2185"></path><path d="M677.339198 596.767506C462.053453 826.363234 230.072728 960.400075 125.450851 877.402174c2.066998 2.225997 4.133995 4.451995 6.200993 6.359992 101.12388 94.763888 361.565572-18.602978 581.462311-253.2867 219.89674-234.683722 316.409625-501.803406 215.285745-596.726293-2.225997-2.066998-4.451995-3.974995-6.836991-5.882993C1011.238802 127.082062 892.465943 367.171778 677.339198 596.767506z" fill="#9E6434" p-id="2186"></path><path d="M353.933581 660.208431c5.723993 1.112999 20.351976 5.723993 25.598969 3.020996 4.133995-2.225997 11.606986-9.221989 12.878985-13.832983 0.953999-3.179996-5.246994-5.564993-6.995991-8.42699-1.907998-3.338996-3.497996-13.832984-7.154992-15.104982-6.200993-2.384997-15.899981 2.543997-21.941974 5.246993-5.882993 2.702997-14.627983 1.589998-15.899981 7.949991-0.635999 3.179996 1.112999 10.175988 3.179996 12.560985 3.338996 4.133995 5.246994 7.790991 10.334988 8.58599z m171.083797-333.104606c4.133995 0.953999 14.945982 5.087994 18.443978 3.338996 2.861997-1.430998 7.949991-6.041993 8.58599-9.221989 0.476999-2.225997-4.133995-4.133995-5.405993-6.359992-1.589998-2.543997-3.179996-10.016988-5.882993-11.129987-4.610995-1.907998-11.288987 1.112999-15.581982 2.702997-4.133995 1.589998-10.493988 0.476999-10.970987 4.928994-0.318 2.225997 1.271998 7.313991 2.861997 9.062989 2.861997 3.179996 4.292995 5.723993 7.94999 6.677992z m303.84864-163.928805c-0.794999 4.292995-4.451995 15.263982-2.543997 19.238977 1.589998 3.179996 6.836992 8.903989 10.334988 9.857988 2.384997 0.635999 4.133995-3.974995 6.359993-5.087994 2.543997-1.430998 10.334988-2.543997 11.447986-5.246994 1.748998-4.610995-1.748998-12.083986-3.815995-16.69498-1.907998-4.451995-1.112999-11.129987-5.882994-12.083986-2.384997-0.476999-7.631991 0.794999-9.539988 2.225998-2.861997 2.702997-5.564993 3.974995-6.359993 7.790991zM663.824214 331.39682c-5.087994 7.154992-20.510976 24.167971-20.033976 32.912961 0.318 6.995992 5.246994 21.623974 10.652987 26.075969 3.815995 3.179996 10.811987-3.815995 15.740981-4.292994 5.723993-0.476999 20.828975 3.815995 24.962971-0.318 6.995992-6.995992 6.518992-23.213973 6.518992-33.230961 0-9.698989 6.995992-20.828975-0.953999-26.552968-3.974995-2.861997-14.468983-4.769994-19.079977-3.497996-7.472991 2.225997-13.355984 2.543997-17.807979 8.903989zM136.898838 649.555443c-3.338996 4.610995-13.355984 15.740981-13.037985 21.464975 0.318 4.610995 3.497996 13.991983 6.995992 17.01298 2.384997 2.066998 6.995992-2.543997 10.175988-2.702997 3.815995-0.318 13.673984 2.543997 16.217981-0.159 4.610995-4.610995 4.292995-15.104982 4.292995-21.623974 0-6.359992 4.610995-13.673984-0.636-17.33098-2.543997-1.907998-9.380989-3.179996-12.401985-2.225997-4.769994 1.271998-8.74499 1.430998-11.606986 5.564993z m161.384809-252.8097c6.200993 5.882993 6.677992 15.581982 0.953999 21.782974-5.723993 6.200993-15.581982 6.359992-21.782975 0.477-6.200993-5.882993-2.066998-11.288987 3.656996-17.48998 2.543997-2.702997 1.430998-8.42699 3.974995-9.698988 3.020996-1.589998 9.698989 1.748998 13.196985 4.928994z m300.350644-260.441692c8.10899-3.179996 12.242985-11.924986 9.221989-19.556976-3.020996-7.631991-11.924986-11.447986-20.033976-8.267991s-6.200993 9.539989-3.338996 17.17198c1.271998 3.338996-1.907998 8.26799-0.159 10.334988 2.384997 2.543997 9.698989 1.907998 14.309983 0.317999z m-36.728957 486.380424c5.882993 0.159 20.510976 2.861997 26.552969-0.953999 4.769994-3.020996 13.832984-11.924986 15.899981-17.012979 1.430998-3.497996-4.610995-5.087994-5.882993-7.949991-1.430998-3.338996-1.271998-14.309983-4.928994-15.104982-6.200993-1.430998-17.330979 5.405994-24.167971 9.380989-6.677992 3.815995-15.740981 4.133995-18.125979 11.129987-1.112999 3.497996-0.635999 10.811987 1.271999 13.037984 2.861997 3.656996 4.133995 7.313991 9.380988 7.472991z m309.731634-574.784319c3.497996 0.635999 12.401985 3.497996 15.581981 1.907998 2.543997-1.271998 6.995992-5.564993 7.790991-8.42699 0.476999-1.907998-3.179996-3.338996-4.133995-5.087994-1.112999-2.066998-2.066998-8.42699-4.292995-9.221989-3.815995-1.430998-9.698989 1.589998-13.355984 3.179996-3.497996 1.589998-8.903989 0.953999-9.698989 4.769994-0.318 1.907998 0.635999 6.200993 1.907998 7.631991 2.066998 2.543997 3.179996 4.769994 6.200993 5.246994zM419.441503 431.884701c7.790991 7.949991 33.54896 21.146975 40.385952 13.037985 3.815995-4.610995-5.723993-25.916969-8.26799-24.167972-2.702997 1.748998-8.74499 5.564993-11.606986 3.974996-3.974995-2.225997-6.200993-14.945982-9.857988-16.376981-3.656996-1.430998-15.899981-2.543997-18.125979 1.748998-2.384997 4.928994 3.497996 17.807979 7.472991 21.782974zM175.535792 843.058214c-7.790991 3.179996-24.326971 17.489979-20.669975 24.485971 2.066998 3.974995 19.715977 3.338996 19.238977 1.112999-0.476999-2.384997-1.430998-7.790991 0.476999-9.221989 2.702997-2.066998 12.242985 0 14.309983-2.225997 2.066998-2.066998 6.359992-10.493988 3.974996-13.037985-2.702997-3.179996-13.355984-2.702997-17.33098-1.112999z m152.957819-68.210919c-0.635999 5.882993-1.430998 3.656996-2.861997 9.539989-0.794999 3.497996 2.702997 9.698989 3.020997 12.878985 0.318 2.543997 7.790991-2.225997 7.631991 0.476999 0 0.635999-0.476999 2.225997 4.292995-1.748998s8.10899-5.723993 9.062989-9.698988c0.953999-3.815995 1.589998-7.949991 1.271998-10.652988-0.318-2.702997-2.384997-7.154992-1.112998-12.083986 1.430998-5.246994-2.543997-4.610995-3.497996-3.179996-6.041993 10.175988-6.995992 5.087994-11.447987 8.58599-3.656996 3.338996-5.882993 1.589998-6.359992 5.882993z" fill="#6D4836" p-id="2187"></path><path d="M502.757405 233.770936c-51.197939 42.61195-77.273908 79.499906-97.307885 55.490934-20.033976-24.008972 8.10899-69.482918 59.30693-112.094867 51.197939-42.61195 105.893875-66.143922 125.92785-42.13495 20.033976 24.008972-36.728956 56.126934-87.926895 98.738883z m141.350832-106.847874c2.066998 14.627983-8.10899 28.142967-22.736973 30.209965-14.627983 2.066998-9.380989-10.811987-11.447986-25.43997-2.066998-14.627983-10.811987-25.43997 3.815995-27.506968 14.786982-2.066998 28.301966 8.10899 30.368964 22.736973z" fill="#F5CD85" opacity=".54" p-id="2188"></path></svg>